<svg xmlns="http://www.w3.org/2000/svg" viewBox="0 0 1024 1024" width="24" height="24">
    <path fill="#FFFFFF" d="M511.09 614.457l81.92-81.92 410.51-414.151c21.845-22.756 21.845-59.164 0-81.01-22.756-22.756-59.164-22.756-81.92 0L511.09 448.797 101.49 39.196c-22.756-22.756-59.164-22.756-81.92 0s-22.756 59.164 0 81.92L511.09 614.457z" />
    <path fill="#FFFFFF" d="M1003.52 429.682c-22.756-22.756-59.164-22.756-81.92 0L511.09 841.102 101.49 431.502c-22.756-22.756-59.164-22.756-81.92 0s-22.756 59.164 0 81.92l491.52 492.43 81.92-81.92 411.42-410.51c22.756-22.756 22.756-59.164 0-81.92z" />
</svg>
