<svg xmlns="http://www.w3.org/2000/svg" 
    width="24" 
    height="24" 
    viewBox="0 0 1024 1024">
    <path fill="#FFFFFF" d="M908.4,98.3L115.6,98.3C87,98.3 63.8,121.5 63.8,150.1L63.8,873.9C63.8,902.5 87,925.7 115.6,925.7L908.4,925.7C937,925.7 960.2,902.5 960.2,873.9L960.2,150.1C960.2,121.5 937,98.3 908.4,98.3ZM932.6,873.9C932.6,887.3 921.8,898.1 908.4,898.1L115.6,898.1C102.2,898.1 91.4,887.3 91.4,873.9L91.4,150.1C91.4,136.7 102.2,125.9 115.6,125.9L908.4,125.9C921.8,125.9 932.6,136.7 932.6,150.1L932.6,873.9ZM739.5,598.1C739.5,605.8 745.7,611.9 753.3,611.9C761,611.9 767.1,605.8 767.1,598.1L767.1,567.2L863.6,567.2L863.6,470.7L767.1,470.7L767.1,232.4C767.1,224.7 761,218.6 753.3,218.6C745.7,218.6 739.5,224.7 739.5,232.4L739.5,484.5L643,484.5L643,581L739.5,581L739.5,598.1ZM656.8,512L822.3,512L822.3,553.4L656.8,553.4L656.8,512ZM284.5,598.1C284.5,605.8 290.6,611.9 298.3,611.9C305.9,611.9 312.1,605.8 312.1,598.1L312.1,498.2L408.6,498.2L408.6,401.7L312.1,401.7L312.1,232.4C312.1,224.7 305.9,218.6 298.3,218.6C290.6,218.6 284.5,224.7 284.5,232.4L284.5,401.7L188,401.7L188,512L284.5,512L284.5,598.1ZM201.7,429.3L367.2,429.3L367.2,484.4L201.7,484.4L201.7,429.3ZM505.1,598.1C505.1,605.8 511.3,611.9 518.9,611.9C526.5,611.9 532.7,605.8 532.7,598.1L532.7,360.3L629.2,360.3L629.2,250L532.7,250L532.7,232.4C532.7,224.7 526.5,218.6 518.9,218.6C511.3,218.6 505.1,224.7 505.1,232.4L505.1,250L408.6,250L408.6,360.3L505.1,360.3L505.1,598.1ZM422.4,277.6L587.8,277.6L587.8,332.7L422.4,332.7L422.4,277.6ZM509.9,674C471,674 439.2,705.8 439.2,744.8C439.2,783.7 471,815.5 509.9,815.5C548.9,815.5 580.6,783.7 580.6,744.8C580.6,705.8 548.9,674 509.9,674ZM509.9,787.9C486.1,787.9 466.8,768.5 466.8,744.8C466.8,721 486.1,701.6 509.9,701.6C533.7,701.6 553,721 553,744.8C553,768.5 533.7,787.9 509.9,787.9ZM737.6,674C698.6,674 666.9,705.8 666.9,744.8C666.9,783.7 698.6,815.5 737.6,815.5C776.6,815.5 808.3,783.7 808.3,744.8C808.3,705.8 776.6,674 737.6,674ZM737.6,787.9C713.8,787.9 694.5,768.5 694.5,744.8C694.5,721 713.8,701.6 737.6,701.6C761.4,701.6 780.7,721 780.7,744.8C780.7,768.5 761.4,787.9 737.6,787.9ZM282.2,674C243.2,674 211.4,705.8 211.4,744.8C211.4,783.7 243.2,815.5 282.2,815.5C321.2,815.5 352.9,783.7 352.9,744.8C352.9,705.8 321.2,674 282.2,674ZM282.2,787.9C258.4,787.9 239,768.5 239,744.8C239,721 258.4,701.6 282.2,701.6C306,701.6 325.3,721 325.3,744.8C325.3,768.5 306,787.9 282.2,787.9Z" />
</svg>