<?xml version="1.0" standalone="no"?><!DOCTYPE svg PUBLIC "-//W3C//DTD SVG 1.1//EN" "http://www.w3.org/Graphics/SVG/1.1/DTD/svg11.dtd"><svg t="1784474840010" class="icon" viewBox="0 0 1024 1024" version="1.1" xmlns="http://www.w3.org/2000/svg" p-id="1904" xmlns:xlink="http://www.w3.org/1999/xlink" width="200" height="200"><path d="M728.615385 472.615385v216.615384a16.935385 16.935385 0 0 1-1.378462 7.089231 108.307692 108.307692 0 1 1-38.006154-100.430769V452.923077a19.692308 19.692308 0 0 1 19.692308-19.692308h59.076923a19.692308 19.692308 0 0 1 0 39.384616zM236.307692 157.538462a78.769231 78.769231 0 0 0-78.76923 78.76923v551.384616a78.769231 78.769231 0 0 0 78.76923 78.76923h551.384616a78.769231 78.769231 0 0 0 78.76923-78.76923V236.307692a78.769231 78.769231 0 0 0-78.76923-78.76923z m0-39.384616h551.384616a118.153846 118.153846 0 0 1 118.153846 118.153846v551.384616a118.153846 118.153846 0 0 1-118.153846 118.153846H236.307692a118.153846 118.153846 0 0 1-118.153846-118.153846V236.307692a118.153846 118.153846 0 0 1 118.153846-118.153846z m384 630.153846a68.923077 68.923077 0 1 0-68.923077-68.923077 68.923077 68.923077 0 0 0 68.923077 68.923077zM571.076923 354.461538a19.692308 19.692308 0 0 1-19.692308 19.692308H295.384615a19.692308 19.692308 0 0 1 0-39.384615h256a19.692308 19.692308 0 0 1 19.692308 19.692307z m-137.846154 177.23077a19.692308 19.692308 0 0 1-19.692307 19.692307h-118.153847a19.692308 19.692308 0 0 1 0-39.384615h118.153847a19.692308 19.692308 0 0 1 19.692307 19.692308z" fill="#FFFFFF" p-id="1905"></path></svg>
