<svg xmlns="http://www.w3.org/2000/svg" 
    width="24" 
    height="24" 
    viewBox="0 0 1024 1024">
    <path fill="#FFFFFF" d="M512,832a42.69,42.69 0 0,1 42.69,42.62v64a42.69,42.69 0 1,1 -85.38,0v-64A42.69,42.69 0 0,1 512,832zM798.66,738.3l45.25,45.18a42.62,42.62 0 1,1 -60.35,60.35l-45.25,-45.25a42.62,42.62 0 1,1 60.35,-60.29zM285.76,738.3a42.69,42.69 0 0,1 0,60.29l-45.25,45.25a42.69,42.69 0 0,1 -60.35,-60.35l45.25,-45.25a42.69,42.69 0 0,1 60.35,0zM938.69,469.31a42.69,42.69 0 1,1 0,85.38h-64a42.69,42.69 0 1,1 0,-85.38h64zM149.31,469.31a42.69,42.69 0 0,1 0,85.38h-64a42.69,42.69 0 0,1 0,-85.38h64zM843.84,180.1a42.69,42.69 0 0,1 0,60.35l-45.25,45.25a42.69,42.69 0 1,1 -60.35,-60.35l45.25,-45.25a42.69,42.69 0 0,1 60.35,0zM240.45,180.1l45.25,45.31a42.69,42.69 0 1,1 -60.35,60.29l-45.25,-45.25a42.69,42.69 0 1,1 60.35,-60.35zM512,42.69a42.69,42.69 0 0,1 42.69,42.62v64a42.69,42.69 0 0,1 -85.38,0v-64A42.69,42.69 0 0,1 512,42.69z" />
    <path fill="#FFFFFF" d="M512.13,274.37a237.63,237.63 0 1,1 0,475.26 237.63,237.63 0 0,1 0,-475.26z" />
</svg>