<?xml version="1.0" standalone="no"?><!DOCTYPE svg PUBLIC "-//W3C//DTD SVG 1.1//EN" "http://www.w3.org/Graphics/SVG/1.1/DTD/svg11.dtd"><svg viewBox="0 0 1024 1024" version="1.1" xmlns="http://www.w3.org/2000/svg" width="200" height="200"><path fill="#FFFFFF" d="M853.333 128H170.667C147.2 128 128 147.2 128 170.667v682.666C128 876.8 147.2 896 170.667 896h682.666C876.8 896 896 876.8 896 853.333V170.667C896 147.2 876.8 128 853.333 128zM384 725.333c0 23.467-19.2 42.667-42.667 42.667s-42.666-19.2-42.666-42.667V512c0-23.467 19.2-42.667 42.666-42.667S384 488.533 384 512v213.333zm213.333-85.333c0 23.467-19.2 42.667-42.666 42.667S512 663.467 512 640V384c0-23.467 19.2-42.667 42.667-42.667s42.666 19.2 42.666 42.667V640zm128-128c0 23.467-19.2 42.667-42.666 42.667S640 535.467 640 512V384c0-23.467 19.2-42.667 42.667-42.667s42.666 19.2 42.666 42.667V512z"/></svg>
