<svg xmlns="http://www.w3.org/2000/svg" 
    width="24" 
    height="24" 
    viewBox="0 0 1024 1024">
    <path fill="#FFFFFF" d="M431.6,950.9H84.2A83.4,83.4 0 0 1,0.1 864.5V178.5a83.4,83.4 0 0 1,84.1 -82.7H431.6A82.7,82.7 0 0 1,512.1 178.5v686.1A82.7,82.7 0 0 1,431.6 950.9zM84.2,169a9.5,9.5 0 0 0,-11 9.5v686.1a9.5,9.5 0 0 0,9.5 9.5H431.6a8.8,8.8 0 0 0,7.3 -9.5V178.5a8.8,8.8 0 0 0,-8.8 -9.5z" />
    <path fill="#FFFFFF" d="M950.9,895.3H585.2a37.3,37.3 0 0 1,-36.6 -36.6,36.6 36.6 0 0 1,36.6 -36.6h365.7a12.4,12.4 0 0 0,3.7 -9.5V465.2c0,-5.9 0,-8.8 -4.4,-8.8H585.2a37.3,37.3 0 0 1,-36.6 -36.6,36.6 36.6 0 0 1,36.6 -36.6h365.7a79.7,79.7 0 0 1,73.1 81.9v347.4a79.7,79.7 0 0 1,-73.1 82.7z" />
    <path fill="#FFFFFF" d="M343.8,792.9H171.2a27.8,27.8 0 0 1,0 -54.9H343.8a27.8,27.8 0 1 1,0 54.9z" />
</svg>