<?xml version="1.0" standalone="no"?><!DOCTYPE svg PUBLIC "-//W3C//DTD SVG 1.1//EN" "http://www.w3.org/Graphics/SVG/1.1/DTD/svg11.dtd"><svg t="1784475058813" class="icon" viewBox="0 0 1024 1024" version="1.1" xmlns="http://www.w3.org/2000/svg" p-id="27962" xmlns:xlink="http://www.w3.org/1999/xlink" width="200" height="200"><path d="M372.622222 512c0-39.822222 14.222222-73.955556 39.822222-99.555556 25.6-25.6 59.733333-39.822222 99.555556-39.822222s73.955556 14.222222 99.555556 39.822222c25.6 28.444444 39.822222 59.733333 39.822222 99.555556 0 36.977778-14.222222 71.111111-39.822222 96.711111-25.6 28.444444-59.733333 39.822222-102.4 39.822222-39.822222 0-71.111111-14.222222-99.555556-39.822222-22.755556-25.6-36.977778-56.888889-36.977778-96.711111zM0 512c0-39.822222 14.222222-73.955556 39.822222-99.555556 25.6-25.6 59.733333-39.822222 99.555556-39.822222s73.955556 14.222222 99.555555 39.822222c25.6 28.444444 39.822222 59.733333 39.822223 99.555556 0 36.977778-14.222222 71.111111-39.822223 96.711111-25.6 28.444444-59.733333 39.822222-102.4 39.822222-39.822222 0-71.111111-14.222222-99.555555-39.822222-22.755556-25.6-36.977778-56.888889-36.977778-96.711111z m745.244444 0c0-39.822222 14.222222-73.955556 39.822223-99.555556 25.6-25.6 59.733333-39.822222 99.555555-39.822222s73.955556 14.222222 99.555556 39.822222c25.6 28.444444 39.822222 59.733333 39.822222 99.555556 0 36.977778-14.222222 71.111111-39.822222 96.711111-25.6 28.444444-59.733333 39.822222-102.4 39.822222-39.822222 0-71.111111-14.222222-99.555556-39.822222-25.6-25.6-36.977778-56.888889-36.977778-96.711111z" fill="#FFFFFF" p-id="27963"></path></svg>
