<?xml version="1.0" standalone="no"?><!DOCTYPE svg PUBLIC "-//W3C//DTD SVG 1.1//EN" "http://www.w3.org/Graphics/SVG/1.1/DTD/svg11.dtd"><svg t="1782923050201" class="icon" viewBox="0 0 1024 1024" version="1.1" xmlns="http://www.w3.org/2000/svg" p-id="5353" xmlns:xlink="http://www.w3.org/1999/xlink" width="200" height="200"><path fill="#C8C8C8" d="M557.176471 691.891892V332.108108h-50.467409l-84.655008 65.119237 17.0938 46.397456 64.305246-46.397456V691.891892h53.723371z m-504.674086-135.122417c21.163752 0 35.81558-13.837838 35.81558-35.001589v-97.678856C88.317965 301.176471 188.438792 203.497615 310.537361 199.427663H865.678855l-46.397456 42.327504c-7.325914 7.325914-14.651828 17.90779-14.651828 27.675676 0 21.163752 17.90779 38.257552 39.071542 38.257551 10.581876 0 25.233704-3.255962 32.559618-10.581876l118.028617-108.260731c17.90779-13.837838 14.651828-38.257552 0-52.90938l-122.098569-105.004769c-7.325914-7.325914-21.163752-13.837838-32.559618-13.837838-21.163752 0-39.071542 13.837838-43.141495 35.00159 0 13.837838 7.325914 24.419714 17.90779 31.745627l53.723371 48.839428H313.793323C149.36725 132.680445 16.686804 262.918919 16.686804 427.344992v94.422894c0 21.163752 14.651828 35.00159 35.815581 35.001589z m918.18124-89.53895c-21.163752 0-35.81558 14.651828-35.81558 35.81558v96.864865c0 121.284579-96.050874 221.405405-221.405406 221.405405H160.763116l46.397456-43.141494c7.325914-7.325914 14.651828-17.90779 14.651829-28.489666 0-21.163752-17.90779-39.071542-39.071542-39.071543-10.581876 0-25.233704 3.255962-31.745628 10.581876l-122.09857 110.702703c-17.90779 14.651828-14.651828 39.071542 0 53.723371L150.18124 993.068362c7.325914 7.325914 21.163752 14.651828 31.745628 14.651829 21.163752 0 39.071542-14.651828 43.141494-35.815581 0-14.651828-7.325914-25.233704-17.90779-32.559618l-53.72337-49.653418h556.769475c164.426073 0 296.292528-131.866455 296.292528-289.780604V503.046105c0-21.977742-13.837838-35.81558-35.81558-35.81558z" p-id="5354"></path></svg>