<svg xmlns="http://www.w3.org/2000/svg" 
    width="24" 
    height="24" 
    viewBox="0 0 1024 1024">
    <path fill="#FFFFFF" d="M919.96,512c0,-225.31 -182.65,-407.96 -407.96,-407.96 -225.31,0 -407.96,182.65 -407.96,407.96 0,225.31 182.65,407.96 407.96,407.96 225.31,0 407.96,-182.65 407.96,-407.96zM841.32,512c0,181.88 -147.44,329.32 -329.32,329.32 -181.88,0 -329.32,-147.44 -329.32,-329.32 0,-181.88 147.44,-329.32 329.32,-329.32 181.88,0 329.32,147.44 329.32,329.32z" />
    <path fill="#FFFFFF" d="M512,770.05c142.52,0 258.05,-115.53 258.05,-258.05 0,-142.52 -115.53,-258.05 -258.05,-258.05" />
</svg>