<svg xmlns="http://www.w3.org/2000/svg" width="512" height="512" viewBox="0 0 512 512">
  <defs>
    <linearGradient id="bg" x1="0" y1="0" x2="1" y2="1">
      <stop offset="0" stop-color="#FFB6D1"/>
      <stop offset="1" stop-color="#F56FA0"/>
    </linearGradient>
  </defs>
  <rect width="512" height="512" rx="118" fill="url(#bg)"/>
  <!-- 耳朵(先画,压在头后面) -->
  <g fill="#FFF7FA">
    <path d="M150 150 Q160 78 232 96 L188 176 Z"/>
    <path d="M362 150 Q352 78 280 96 L324 176 Z"/>
  </g>
  <g fill="#FFC7DB">
    <path d="M172 138 Q178 102 218 110 L192 156 Z"/>
    <path d="M340 138 Q334 102 294 110 L320 156 Z"/>
  </g>
  <!-- 头 -->
  <ellipse cx="256" cy="272" rx="158" ry="142" fill="#FFF7FA"/>
  <!-- 耳机:头顶弧带 + 两侧耳罩 -->
  <path d="M118 250 a138 138 0 0 1 276 0" fill="none" stroke="#5A4A52" stroke-width="26" stroke-linecap="round"/>
  <rect x="86" y="238" width="64" height="104" rx="30" fill="#5A4A52"/>
  <rect x="362" y="238" width="64" height="104" rx="30" fill="#5A4A52"/>
  <!-- 眯眯笑眼 + 嘴 + 腮红 -->
  <g stroke="#5A4A52" stroke-width="12" stroke-linecap="round" fill="none">
    <path d="M186 274 q20 -20 40 0"/>
    <path d="M286 274 q20 -20 40 0"/>
    <path d="M244 316 q12 12 24 0"/>
  </g>
  <circle cx="164" cy="308" r="22" fill="#FFB6D1" opacity="0.85"/>
  <circle cx="348" cy="308" r="22" fill="#FFB6D1" opacity="0.85"/>
  <!-- 音符 -->
  <g fill="#5A4A52">
    <circle cx="404" cy="196" r="16"/>
    <rect x="414" y="120" width="10" height="78" rx="5"/>
    <path d="M414 120 q30 6 34 34 q-18 -16 -34 -12 Z"/>
  </g>
</svg>
