<svg xmlns="http://www.w3.org/2000/svg" width="512" height="512" viewBox="0 0 512 512">
  <defs>
    <linearGradient id="bg" x1="0" y1="0" x2="1" y2="1">
      <stop offset="0" stop-color="#FFF7FA"/>
      <stop offset="1" stop-color="#FFE9F1"/>
    </linearGradient>
  </defs>
  <rect width="512" height="512" rx="118" fill="url(#bg)"/>
  <!-- 唱片(猫耳朵从唱片上方探出) -->
  <g fill="#FF8FB8">
    <path d="M186 96 Q196 40 252 58 L216 128 Z"/>
    <path d="M326 96 Q316 40 260 58 L296 128 Z"/>
  </g>
  <circle cx="256" cy="290" r="168" fill="#2A2136"/>
  <circle cx="256" cy="290" r="128" fill="none" stroke="#3A2F46" stroke-width="6"/>
  <circle cx="256" cy="290" r="88" fill="none" stroke="#3A2F46" stroke-width="4"/>
  <!-- 唱片中心 = 猫脸标签 -->
  <circle cx="256" cy="290" r="64" fill="#FFF7FA"/>
  <g stroke="#5A4A52" stroke-width="9" stroke-linecap="round" fill="none">
    <path d="M226 282 q12 -12 24 0"/>
    <path d="M262 282 q12 -12 24 0"/>
    <path d="M246 306 q10 10 20 0"/>
  </g>
  <circle cx="212" cy="312" r="12" fill="#FFB6D1"/>
  <circle cx="300" cy="312" r="12" fill="#FFB6D1"/>
  <circle cx="256" cy="290" r="8" fill="#FF8FB8"/>
  <!-- 音符飘出 -->
  <g fill="#FF8FB8">
    <circle cx="404" cy="176" r="17"/>
    <rect x="415" y="96" width="11" height="82" rx="5.5"/>
    <path d="M415 96 q34 8 38 38 q-20 -18 -38 -13 Z"/>
  </g>
</svg>
